<svg width="20" height="21" viewBox="0 0 20 21" fill="none" xmlns="http://www.w3.org/2000/svg">
<g clip-path="url(#clip0_299_560)">
<path d="M9.37711 6.35812L7.43966 8.32054C6.72587 9.04353 6.00799 9.76653 5.29828 10.4978C5.13105 10.6713 5.0046 10.9027 4.95566 11.1299C4.69869 12.3239 4.44988 13.5178 4.20107 14.7118L4.06239 15.3729C3.99713 15.6951 4.08279 16.0174 4.29896 16.2363C4.4662 16.4057 4.69869 16.5007 4.94342 16.5007C5.01276 16.5007 5.0821 16.4925 5.15144 16.4801L5.86931 16.3272C7.01139 16.0835 8.15754 15.8356 9.29961 15.5959C9.56474 15.5381 9.78907 15.4183 9.98078 15.2241C13.1867 11.9727 16.3927 8.72541 19.5987 5.48226C19.8352 5.24263 19.9658 4.95757 19.9984 4.6064C20.0025 4.54856 19.9984 4.49072 19.9861 4.43701C19.9658 4.35438 19.9494 4.26762 19.929 4.18499C19.8842 3.97429 19.8352 3.73467 19.7373 3.50331C19.1378 2.11516 18.1425 1.12362 16.7802 0.565879C16.5069 0.454331 16.2173 0.417148 15.9644 0.384097L15.8951 0.375834C15.528 0.330388 15.1935 0.454331 14.9039 0.751792C13.0685 2.61919 11.2207 4.49072 9.37711 6.35812ZM15.7605 1.3715C15.7686 1.3715 15.7727 1.3715 15.7809 1.3715L15.8502 1.37977C16.0623 1.40455 16.2581 1.42934 16.4131 1.49545C17.5225 1.9499 18.3383 2.75966 18.8318 3.89993C18.8889 4.03213 18.9257 4.20152 18.9624 4.37917C18.9746 4.44527 18.9909 4.51137 19.0032 4.57748C18.9868 4.65184 18.9583 4.70142 18.9012 4.75513C15.6911 7.99828 12.4852 11.2497 9.27922 14.497C9.22619 14.5507 9.17725 14.5755 9.10383 14.592C7.95768 14.8358 6.8156 15.0795 5.66945 15.3233L5.06578 15.4513L5.17999 14.9101C5.4288 13.7203 5.67761 12.5263 5.9305 11.3365C5.93865 11.2993 5.97129 11.2414 6.00799 11.2001C6.71771 10.473 7.42743 9.75 8.14122 9.03114L10.0787 7.06872C11.9264 5.19719 13.7741 3.32566 15.6177 1.45C15.6952 1.3839 15.7319 1.3715 15.7605 1.3715Z" fill="#636363"/>
<path d="M1.58666 4.8707H8.7083C8.98566 4.8707 9.20999 4.64347 9.20999 4.36253C9.20999 4.0816 8.98566 3.85437 8.7083 3.85437H1.58666C0.709716 3.85437 0 4.57737 0 5.46149V18.9877C0 19.876 0.713795 20.5949 1.58666 20.5949H14.9367C15.8136 20.5949 16.5233 19.8719 16.5233 18.9877V12.0676C16.5233 11.7867 16.299 11.5595 16.0216 11.5595C15.7443 11.5595 15.5199 11.7867 15.5199 12.0676V18.9877C15.5199 19.3141 15.2548 19.5827 14.9326 19.5827H1.58666C1.26444 19.5827 0.999313 19.3141 0.999313 18.9877V5.46562C0.999313 5.13924 1.26444 4.8707 1.58666 4.8707Z" fill="#636363"/>
</g>
<defs>
<clipPath id="clip0_299_560">
<rect width="20" height="20.2578" fill="white" transform="translate(0 0.351807)"/>
</clipPath>
</defs>
</svg>
